<mxfile host="app.diagrams.net" modified="2023-05-13T07:32:43.042Z" agent="Mozilla/5.0 (Windows NT 10.0; Win64; x64) AppleWebKit/537.36 (KHTML, like Gecko) Chrome/113.0.0.0 Safari/537.36" version="21.2.9" etag="NOh5i1chUSvylAyssE8F" type="github">
  <diagram name="Halaman-1" id="rr6bpMStbTqqJT_UiwZg">
    <mxGraphModel>
      <root>
        <mxCell id="0" />
        <mxCell id="1" parent="0" />
      </root>
    </mxGraphModel>
  </diagram>
</mxfile>
